<svg width="41" height="40" viewBox="0 0 41 40" fill="none" xmlns="http://www.w3.org/2000/svg">
<g clip-path="url(#clip0_390_40)">
<rect x="0.5" y="16.6665" width="23.3333" height="23.3333" fill="#7595FD"/>
<path d="M33 5.00017C31.8952 5.00105 30.8359 5.44032 30.0547 6.22153C29.2735 7.00274 28.8342 8.06203 28.8333 9.16683C28.8333 9.76183 28.9633 10.3268 29.19 10.8418L25.9317 14.5068C24.8248 13.7428 23.5116 13.3336 22.1667 13.3335C20.9333 13.3335 19.7933 13.6935 18.8017 14.2768L15.0117 10.4885L14.9733 10.5268C15.3 9.8635 15.5 9.12516 15.5 8.3335C15.5 7.34459 15.2068 6.37789 14.6573 5.55565C14.1079 4.7334 13.327 4.09254 12.4134 3.7141C11.4998 3.33566 10.4945 3.23665 9.52455 3.42957C8.55465 3.6225 7.66373 4.0987 6.96447 4.79796C6.26521 5.49723 5.789 6.38814 5.59608 7.35805C5.40315 8.32795 5.50217 9.33328 5.8806 10.2469C6.25904 11.1605 6.89991 11.9414 7.72215 12.4908C8.5444 13.0403 9.5111 13.3335 10.5 13.3335C11.2917 13.3335 12.0283 13.1335 12.6933 12.8068L12.655 12.8452L16.445 16.6335C15.8327 17.6502 15.5063 18.8133 15.5 20.0002C15.5 21.6618 16.1333 23.1652 17.1417 24.3352L12.8467 28.6285C12.3653 28.4358 11.8518 28.3357 11.3333 28.3335C9.03667 28.3335 7.16667 30.2018 7.16667 32.5002C7.16667 34.7985 9.03667 36.6668 11.3333 36.6668C13.63 36.6668 15.5 34.7985 15.5 32.5002C15.5 31.9652 15.39 31.4568 15.205 30.9852L19.935 26.2552C20.6367 26.5052 21.38 26.6668 22.1667 26.6668C25.8433 26.6668 28.8333 23.6768 28.8333 20.0002C28.8333 18.9402 28.5617 17.9518 28.12 17.0602L31.6483 13.0885C32.075 13.2352 32.525 13.3335 33 13.3335C35.2983 13.3335 37.1667 11.4652 37.1667 9.16683C37.1667 6.8685 35.2983 5.00017 33 5.00017ZM22.1667 23.3335C20.3283 23.3335 18.8333 21.8385 18.8333 20.0002C18.8333 18.1618 20.3283 16.6668 22.1667 16.6668C24.005 16.6668 25.5 18.1618 25.5 20.0002C25.5 21.8385 24.005 23.3335 22.1667 23.3335Z" fill="white"/>
</g>
<defs>
<clipPath id="clip0_390_40">
<rect width="40" height="40" fill="white" transform="translate(0.5)"/>
</clipPath>
</defs>
</svg>
