<svg width="41" height="40" viewBox="0 0 41 40" fill="none" xmlns="http://www.w3.org/2000/svg">
<g clip-path="url(#clip0_390_19)">
<rect x="0.5" y="16.6665" width="23.3333" height="23.3333" fill="#7595FD"/>
<path d="M32.1517 3.3335H15.5167C13.665 3.3335 12.1667 4.83183 12.1667 6.6835V16.0785L4.33001 23.8152C4.0952 24.0474 3.93468 24.3441 3.86881 24.6678C3.80295 24.9914 3.83471 25.3273 3.96006 25.6328C4.08542 25.9383 4.29872 26.1997 4.5729 26.3838C4.84707 26.5679 5.16976 26.6664 5.50001 26.6668V35.0002C5.50001 35.4422 5.6756 35.8661 5.98816 36.1787C6.30073 36.4912 6.72465 36.6668 7.16668 36.6668H33.8333C34.2754 36.6668 34.6993 36.4912 35.0119 36.1787C35.3244 35.8661 35.5 35.4422 35.5 35.0002V6.68183C35.5 4.83183 34.0033 3.3335 32.1517 3.3335ZM18.7033 25.1852V33.3335H8.83334V24.0535L13.8117 19.1385L18.7033 24.1435V25.1852V25.1852ZM22.1667 15.0002H18.8333V11.6668H22.1667V15.0002ZM28.8333 28.3335H25.5V25.0002H28.8333V28.3335ZM28.8333 21.6668H25.5V18.3335H28.8333V21.6668ZM28.8333 15.0002H25.5V11.6668H28.8333V15.0002Z" fill="#292E3D"/>
<path d="M12.1667 25H15.5V28.3333H12.1667V25Z" fill="#14171F"/>
</g>
<defs>
<clipPath id="clip0_390_19">
<rect width="40" height="40" fill="white" transform="translate(0.5)"/>
</clipPath>
</defs>
</svg>
