<svg width="41" height="40" viewBox="0 0 41 40" fill="none" xmlns="http://www.w3.org/2000/svg">
<g clip-path="url(#clip0_390_50)">
<rect x="0.5" y="16.6665" width="23.3333" height="23.3333" fill="#7595FD"/>
<path d="M30.5 26.6665H27.1667V24.9998H13.8333V26.6665H10.5V24.9998H3.83334V33.3332H37.1667V24.9998H30.5V26.6665ZM33.8333 13.3332H28.8333V9.99984C28.8333 8.1665 27.3333 6.6665 25.5 6.6665H15.5C13.6667 6.6665 12.1667 8.1665 12.1667 9.99984V13.3332H7.16668C5.33334 13.3332 3.83334 14.8332 3.83334 16.6665V23.3332H10.5V19.9998H13.8333V23.3332H27.1667V19.9998H30.5V23.3332H37.1667V16.6665C37.1667 14.8332 35.6667 13.3332 33.8333 13.3332ZM25.5 13.3332H15.5V9.99984H25.5V13.3332Z" fill="white"/>
</g>
<defs>
<clipPath id="clip0_390_50">
<rect width="40" height="40" fill="white" transform="translate(0.5)"/>
</clipPath>
</defs>
</svg>
