<svg width="40" height="40" viewBox="0 0 40 40" fill="none" xmlns="http://www.w3.org/2000/svg">
<rect y="16.6665" width="23.3333" height="23.3333" fill="#7595FD"/>
<path d="M18.3333 9.99983H23.3333L28.8167 4.49983C28.9716 4.34362 29.1559 4.21963 29.359 4.13501C29.5621 4.0504 29.78 4.00684 30 4.00684C30.22 4.00684 30.4379 4.0504 30.641 4.13501C30.8441 4.21963 31.0284 4.34362 31.1833 4.49983L35.4833 8.8165C35.7938 9.12877 35.968 9.55119 35.968 9.9915C35.968 10.4318 35.7938 10.8542 35.4833 11.1665L31.6667 14.9998H18.3333V18.3332C18.3333 18.7752 18.1577 19.1991 17.8452 19.5117C17.5326 19.8242 17.1087 19.9998 16.6667 19.9998C16.2246 19.9998 15.8007 19.8242 15.4882 19.5117C15.1756 19.1991 15 18.7752 15 18.3332V13.3332C15 12.4491 15.3512 11.6013 15.9763 10.9761C16.6014 10.351 17.4493 9.99983 18.3333 9.99983ZM8.33333 18.3332V24.9998L4.51667 28.8165C4.20625 29.1288 4.03201 29.5512 4.03201 29.9915C4.03201 30.4318 4.20625 30.8542 4.51667 31.1665L8.81667 35.4832C8.97161 35.6394 9.15594 35.7634 9.35904 35.848C9.56214 35.9326 9.77998 35.9762 10 35.9762C10.22 35.9762 10.4379 35.9326 10.641 35.848C10.8441 35.7634 11.0284 35.6394 11.1833 35.4832L18.3333 28.3332H25C25.442 28.3332 25.866 28.1576 26.1785 27.845C26.4911 27.5324 26.6667 27.1085 26.6667 26.6665V24.9998H28.3333C28.7754 24.9998 29.1993 24.8242 29.5118 24.5117C29.8244 24.1991 30 23.7752 30 23.3332V21.6665H31.6667C32.1087 21.6665 32.5326 21.4909 32.8452 21.1783C33.1577 20.8658 33.3333 20.4419 33.3333 19.9998V18.3332H21.6667V19.9998C21.6667 20.8839 21.3155 21.7317 20.6904 22.3569C20.0652 22.982 19.2174 23.3332 18.3333 23.3332H15C14.1159 23.3332 13.2681 22.982 12.643 22.3569C12.0179 21.7317 11.6667 20.8839 11.6667 19.9998V14.9998L8.33333 18.3332Z" fill="#292E3D"/>
</svg>
