<svg width="33" height="34" viewBox="0 0 33 34" fill="none" xmlns="http://www.w3.org/2000/svg">
<path d="M29.1517 0.333496H12.5167C10.665 0.333496 9.16668 1.83183 9.16668 3.6835V13.0785L1.33001 20.8152C1.0952 21.0474 0.934678 21.3441 0.868812 21.6678C0.802946 21.9914 0.834707 22.3273 0.960063 22.6328C1.08542 22.9383 1.29872 23.1997 1.5729 23.3838C1.84707 23.5679 2.16976 23.6664 2.50001 23.6668V32.0002C2.50001 32.4422 2.6756 32.8661 2.98816 33.1787C3.30073 33.4912 3.72465 33.6668 4.16668 33.6668H30.8333C31.2754 33.6668 31.6993 33.4912 32.0119 33.1787C32.3244 32.8661 32.5 32.4422 32.5 32.0002V3.68183C32.5 1.83183 31.0033 0.333496 29.1517 0.333496ZM15.7033 22.1852V30.3335H5.83334V21.0535L10.8117 16.1385L15.7033 21.1435V22.1852V22.1852ZM19.1667 12.0002H15.8333V8.66683H19.1667V12.0002ZM25.8333 25.3335H22.5V22.0002H25.8333V25.3335ZM25.8333 18.6668H22.5V15.3335H25.8333V18.6668ZM25.8333 12.0002H22.5V8.66683H25.8333V12.0002Z" fill="#292E3D"/>
</svg>
