<svg width="34" height="34" viewBox="0 0 34 34" fill="none" xmlns="http://www.w3.org/2000/svg">
<path d="M33.3167 25.4331L24.0667 16.1831L26.6833 13.5664L20.4333 7.31644L17.8167 9.93311L8.56667 0.683105L0.683334 8.56644L9.93333 17.8164L2 25.7498V31.9998H8.25L16.1833 24.0664L25.4333 33.3164L33.3167 25.4331V25.4331ZM12.3 15.4498L5.4 8.56644L8.56667 5.39977L10.6833 7.51644L8.7 9.49977L11.05 11.8498L13.0333 9.86644L15.45 12.2831L12.3 15.4498V15.4498ZM18.55 21.6998L21.7167 18.5331L24.1333 20.9498L22.15 22.9331L24.5 25.2831L26.4833 23.2998L28.6 25.4164L25.4333 28.5831L18.55 21.6998V21.6998ZM22.2217 5.53811L26.4517 1.30644L32.6983 7.5531L28.4683 11.7848L22.2217 5.53811Z" fill="#F9995D"/>
</svg>
